<svg xmlns="http://www.w3.org/2000/svg" xmlns:xlink="http://www.w3.org/1999/xlink" width="383.023" height="381.512" viewBox="0 0 383.023 381.512">
  <defs>
    <linearGradient id="linear-gradient" x1="0.5" x2="0.5" y2="1" gradientUnits="objectBoundingBox">
      <stop offset="0" stop-color="#c6c1f9"/>
      <stop offset="1" stop-color="#9283f1"/>
    </linearGradient>
  </defs>
  <g id="Group_1051" data-name="Group 1051" transform="translate(-709.193 -596.933)">
    <g id="noun-triangle-1384033" transform="translate(569.982 941.248) rotate(-73)">
      <path id="Path_1567" data-name="Path 1567" d="M218.618,131.769,95.063,338.048a29.211,29.211,0,0,0,24.949,43.769H367.184a29.211,29.211,0,0,0,24.949-43.769L268.515,131.769a29.156,29.156,0,0,0-49.9,0Z" transform="translate(0 0)" fill="url(#linear-gradient)"/>
    </g>
    <g id="noun-triangle-1384033-2" data-name="noun-triangle-1384033" transform="matrix(-0.839, -0.545, 0.545, -0.839, 1023.771, 1124.64)">
      <path id="Path_1567-2" data-name="Path 1567" d="M160.787,125.385,93.293,238.069a15.957,15.957,0,0,0,13.629,23.91H241.944a15.957,15.957,0,0,0,13.629-23.91L188.044,125.385a15.927,15.927,0,0,0-27.257,0Z" transform="translate(0)" fill="rgba(218,212,255,0.6)" stroke="rgba(255,255,255,0.3)" stroke-width="3"/>
    </g>
  </g>
</svg>
