<svg xmlns="http://www.w3.org/2000/svg" width="220" height="65" viewBox="0 0 220 65">
  <g id="btn_LS_mob" transform="translate(-70 -440)">
    <g id="Group_1036" data-name="Group 1036" transform="translate(44.541 423.201)">
      <g id="Group_1031" data-name="Group 1031" transform="translate(25.459 16.799)">
        <rect id="Rectangle_1530" data-name="Rectangle 1530" width="218.5" height="63.5" rx="7.382" transform="translate(0.75 0.75)"/>
        <path id="Path_1509" data-name="Path 1509" d="M237.179,82.8H33.739a8.3,8.3,0,0,1-8.28-8.311V26.11a8.3,8.3,0,0,1,8.28-8.311h203.44a8.3,8.3,0,0,1,8.28,8.311V74.488A8.3,8.3,0,0,1,237.179,82.8ZM33.739,19.438a6.667,6.667,0,0,0-6.647,6.672V74.488a6.667,6.667,0,0,0,6.647,6.671h203.44a6.667,6.667,0,0,0,6.647-6.671V26.11a6.667,6.667,0,0,0-6.647-6.672Z" transform="translate(-25.459 -17.799)" fill="#96999c"/>
      </g>
    </g>
    <g id="Group_1062" data-name="Group 1062" transform="translate(-1235 -328.653)">
      <path id="language_FILL0_wght400_GRAD0_opsz48" d="M19.672,35.345a15.358,15.358,0,0,1-6.151-1.234,15.827,15.827,0,0,1-4.976-3.35,15.5,15.5,0,0,1-3.33-5A15.715,15.715,0,0,1,4,19.594a15.431,15.431,0,0,1,1.215-6.132,15.616,15.616,0,0,1,3.33-4.956A15.3,15.3,0,0,1,13.521,5.2,15.794,15.794,0,0,1,19.672,4a15.794,15.794,0,0,1,6.151,1.2A15.3,15.3,0,0,1,30.8,8.506a15.616,15.616,0,0,1,3.33,4.956,15.431,15.431,0,0,1,1.215,6.132,15.715,15.715,0,0,1-1.215,6.171,15.5,15.5,0,0,1-3.33,5,15.827,15.827,0,0,1-4.976,3.35A15.358,15.358,0,0,1,19.672,35.345Zm0-2.272a13.041,13.041,0,0,0,2.292-3.232,19.461,19.461,0,0,0,1.508-4.329H15.911a19.871,19.871,0,0,0,1.469,4.232A13.353,13.353,0,0,0,19.672,33.072Zm-3.33-.47a18.732,18.732,0,0,1-1.685-3.213,23.471,23.471,0,0,1-1.175-3.879H7.6a14.052,14.052,0,0,0,3.448,4.369A17.215,17.215,0,0,0,16.342,32.6Zm6.7-.039a15.687,15.687,0,0,0,5.074-2.7A14.033,14.033,0,0,0,31.74,25.51H25.9a28.383,28.383,0,0,1-1.2,3.84,17.785,17.785,0,0,1-1.665,3.213Zm-16.221-9.4h6.23q-.118-1.058-.137-1.9t-.02-1.665q0-.98.039-1.744t.157-1.7H6.821a11.425,11.425,0,0,0-.372,1.685,13.73,13.73,0,0,0-.1,1.763,15.181,15.181,0,0,0,.1,1.822,11.045,11.045,0,0,0,.372,1.744Zm8.659,0H23.9q.157-1.215.2-1.979t.039-1.587q0-.784-.039-1.508t-.2-1.939H15.48q-.157,1.215-.2,1.939t-.039,1.508q0,.823.039,1.587t.2,1.979Zm10.775,0h6.269a11.044,11.044,0,0,0,.372-1.744,15.18,15.18,0,0,0,.1-1.822,13.731,13.731,0,0,0-.1-1.763,11.424,11.424,0,0,0-.372-1.685h-6.23q.118,1.371.157,2.1t.039,1.352q0,.862-.059,1.626t-.176,1.939ZM25.863,13.8H31.74a12.7,12.7,0,0,0-3.546-4.506A13.511,13.511,0,0,0,23,6.743a17.078,17.078,0,0,1,1.665,3.134,25.482,25.482,0,0,1,1.2,3.918Zm-9.952,0h7.6a15.282,15.282,0,0,0-1.45-4.016,16.028,16.028,0,0,0-2.39-3.428,8.616,8.616,0,0,0-2.116,2.782A25.3,25.3,0,0,0,15.911,13.8ZM7.6,13.8h5.916a22.054,22.054,0,0,1,1.1-3.781A18.6,18.6,0,0,1,16.3,6.782,12.926,12.926,0,0,0,7.6,13.8Z" transform="translate(1326.328 781.48)" fill="#5191FC"/>
      <g id="title-02" transform="translate(1368 791.253)">
        <path id="Path_1568" data-name="Path 1568" d="M5,4.1H7.2v10h6.2V16H5Z" fill="#fff"/>
        <path id="Path_1569" data-name="Path 1569" d="M22.7,10.6V16h-2V14.9a3.192,3.192,0,0,1-2.9,1.2c-2.1,0-3.4-1.1-3.4-2.7,0-1.5,1-2.7,3.8-2.7h2.3v-.1c0-1.2-.7-2-2.3-2a4.47,4.47,0,0,0-2.8.9L14.6,8a6.8,6.8,0,0,1,3.8-1.1C21.2,6.8,22.7,8,22.7,10.6Zm-2.2,2.5V12H18.3c-1.4,0-1.8.5-1.8,1.2,0,.8.6,1.3,1.7,1.3A2.138,2.138,0,0,0,20.5,13.1Z" fill="#fff"/>
        <path id="Path_1570" data-name="Path 1570" d="M24.4,15.1l.8-1.6a6.338,6.338,0,0,0,3.2.9c1.3,0,1.9-.4,1.9-1,0-1.7-5.6-.1-5.6-3.7,0-1.7,1.5-2.8,4-2.8a7.116,7.116,0,0,1,3.4.8l-.8,1.6a5.09,5.09,0,0,0-2.6-.7c-1.3,0-1.9.4-1.9,1,0,1.8,5.6.2,5.6,3.8,0,1.7-1.6,2.8-4.1,2.8A9.07,9.07,0,0,1,24.4,15.1Z" fill="#fff"/>
        <path id="Path_1571" data-name="Path 1571" d="M39.6,15.5a3.379,3.379,0,0,1-2,.6A2.8,2.8,0,0,1,34.5,13V8.7H33V7h1.5V4.9h2.1V7H39V8.7H36.6V13c0,.9.4,1.4,1.3,1.4a1.746,1.746,0,0,0,1.2-.4Z" fill="#fff"/>
        <path id="Path_1572" data-name="Path 1572" d="M45.3,14.7,46,13a6.525,6.525,0,0,0,3.9,1.3c1.9,0,2.6-.7,2.6-1.5,0-2.6-7.1-.9-7.1-5.3,0-1.9,1.5-3.6,4.8-3.6a7.742,7.742,0,0,1,4,1.1l-.7,1.7a6.838,6.838,0,0,0-3.3-.9c-1.8,0-2.6.7-2.6,1.6,0,2.5,7.1.9,7.1,5.3,0,1.9-1.5,3.5-4.8,3.5C48.1,16.1,46.2,15.6,45.3,14.7Z" fill="#fff"/>
        <path id="Path_1573" data-name="Path 1573" d="M65.2,12.1H58.1A2.836,2.836,0,0,0,61,14.3a3.317,3.317,0,0,0,2.5-1l1.1,1.3a4.541,4.541,0,0,1-3.7,1.5,4.653,4.653,0,0,1-5-4.7,4.492,4.492,0,0,1,4.7-4.6,4.437,4.437,0,0,1,4.6,4.7A.629.629,0,0,1,65.2,12.1Zm-7.1-1.4h5.2a2.636,2.636,0,0,0-5.2,0Z" fill="#fff"/>
        <path id="Path_1574" data-name="Path 1574" d="M75.8,12.1H68.7a2.836,2.836,0,0,0,2.9,2.2,3.317,3.317,0,0,0,2.5-1l1.1,1.3a4.541,4.541,0,0,1-3.7,1.5,4.653,4.653,0,0,1-5-4.7,4.492,4.492,0,0,1,4.7-4.6,4.437,4.437,0,0,1,4.6,4.7Zm-7.1-1.4h5.2a2.636,2.636,0,0,0-5.2,0Z" fill="#fff"/>
        <path id="Path_1575" data-name="Path 1575" d="M86.8,10.8V16H84.7V11c0-1.6-.8-2.4-2.2-2.4-1.5,0-2.5,1-2.5,2.8V16H77.9V6.9h2V8.1A4.055,4.055,0,0,1,83,6.8C85.2,6.8,86.8,8,86.8,10.8Z" fill="#fff"/>
        <path id="Path_1576" data-name="Path 1576" d="M111.8,4.1,107.9,16h-2.3l-2.9-8.8-3,8.8H97.3l-4-11.9h2.3l3,9,3.1-9h2l3,9.1,3-9.1h2.1Z" fill="#fff"/>
        <path id="Path_1577" data-name="Path 1577" d="M121.2,12.1h-7.1a2.836,2.836,0,0,0,2.9,2.2,3.317,3.317,0,0,0,2.5-1l1.1,1.3a4.541,4.541,0,0,1-3.7,1.5,4.653,4.653,0,0,1-5-4.7,4.492,4.492,0,0,1,4.7-4.6,4.437,4.437,0,0,1,4.6,4.7A.629.629,0,0,1,121.2,12.1Zm-7.1-1.4h5.2a2.636,2.636,0,0,0-5.2,0Z" fill="#fff"/>
        <path id="Path_1578" data-name="Path 1578" d="M133,11.4a4.492,4.492,0,0,1-4.6,4.7,3.668,3.668,0,0,1-3-1.3V16h-2V3.4h2.1V8a3.847,3.847,0,0,1,2.9-1.2A4.41,4.41,0,0,1,133,11.4Zm-2.2,0a2.7,2.7,0,1,0-5.4,0,2.654,2.654,0,0,0,2.7,2.8A2.547,2.547,0,0,0,130.8,11.4Z" fill="#fff"/>
      </g>
    </g>
  </g>
</svg>
