<svg xmlns="http://www.w3.org/2000/svg" xmlns:xlink="http://www.w3.org/1999/xlink" width="132" height="132" viewBox="0 0 132 132">
  <defs>
    <linearGradient id="linear-gradient" x1="0.5" x2="0.5" y2="1" gradientUnits="objectBoundingBox">
      <stop offset="0" stop-color="#bed8fb"/>
      <stop offset="1" stop-color="#7daff2"/>
    </linearGradient>
    <clipPath id="clip-Chat">
      <rect width="132" height="132"/>
    </clipPath>
  </defs>
  <g id="Chat" clip-path="url(#clip-Chat)">
    <rect width="132" height="132" fill="#fff"/>
    <g id="Chat-2" data-name="Chat" transform="translate(0.388 13.355)">
      <g id="Icon" transform="translate(36.194 26.322)" stroke-miterlimit="10" fill="url(#linear-gradient)">
        <path d="M68.374,68.823c16-5.842,27.044-18.258,27.044-32.63C95.418,16.2,74.058,0,47.709,0S0,16.2,0,36.193,21.36,72.385,47.709,72.385a63.255,63.255,0,0,0,6.628-.347c10.646,5.532,24.628,6.929,24.628,6.929A28,28,0,0,1,68.374,68.823Z" stroke="none"/>
        <path d="M 76.64902496337891 78.16211700439453 C 76.10152435302734 77.79731750488281 75.47341156005859 77.35214233398438 74.79808044433594 76.82568359375 C 71.14757537841797 73.97989654541016 69.05294799804688 71.03703308105469 67.93861389160156 69.06939697265625 L 67.64772033691406 68.55575561523438 L 68.20220184326172 68.35331726074219 C 76.100830078125 65.46959686279297 82.77890777587891 60.9848747253418 87.51447296142578 55.38399505615234 C 92.35772705078125 49.65572738647461 94.91773986816406 43.01943206787109 94.91773986816406 36.19252777099609 C 94.91773986816406 31.39282035827637 93.67764282226562 26.73493957519531 91.23188018798828 22.34827423095703 C 88.86285400390625 18.09922027587891 85.46816253662109 14.28075313568115 81.14209747314453 10.99892711639404 C 76.8057861328125 7.70932674407959 71.75388336181641 5.125860214233398 66.12672424316406 3.320300102233887 C 60.29436492919922 1.448886871337891 54.09769821166992 0.5000068545341492 47.70886993408203 0.5000068545341492 C 41.32004165649414 0.5000068545341492 35.12337493896484 1.448886871337891 29.29101753234863 3.320300102233887 C 23.66385650634766 5.125860214233398 18.6119499206543 7.70932674407959 14.27564334869385 10.99892711639404 C 9.949576377868652 14.28075313568115 6.554883480072021 18.09922027587891 4.185856819152832 22.34827423095703 C 1.740096569061279 26.73493957519531 0.5000032782554626 31.39282035827637 0.5000032782554626 36.19252777099609 C 0.5000032782554626 40.99223327636719 1.740096569061279 45.65011215209961 4.185856819152832 50.03678131103516 C 6.554883480072021 54.28583526611328 9.949576377868652 58.10431289672852 14.27564334869385 61.38613891601562 C 18.6119499206543 64.67574310302734 23.66385650634766 67.25920867919922 29.29101753234863 69.06476593017578 C 35.12337493896484 70.93618011474609 41.32004165649414 71.88506317138672 47.70886993408203 71.88506317138672 C 49.9076042175293 71.88506317138672 52.11983108520508 71.76939392089844 54.28412246704102 71.54129028320312 L 54.43365478515625 71.52552795410156 L 54.56707000732422 71.5948486328125 C 60.01330947875977 74.42469787597656 66.36534881591797 76.14289855957031 70.73500061035156 77.08598327636719 C 73.11222076416016 77.59904479980469 75.17623138427734 77.94455718994141 76.64902496337891 78.16211700439453 M 78.96497344970703 78.96794128417969 C 78.96497344970703 78.96794128417969 64.98287200927734 77.57034301757812 54.3365364074707 72.03852844238281 C 52.17105484008789 72.26676940917969 49.95717620849609 72.38506317138672 47.70886993408203 72.38506317138672 C 21.35957717895508 72.38506317138672 3.267415422669728e-06 56.18103408813477 3.267415422669728e-06 36.19252777099609 C 3.267415422669728e-06 16.20401954650879 21.35957717895508 6.827392553532263e-06 47.70886993408203 6.827392553532263e-06 C 74.05816650390625 6.827392553532263e-06 95.41773986816406 16.20401954650879 95.41773986816406 36.19252777099609 C 95.41773986816406 50.56536865234375 84.37521362304688 62.9809684753418 68.37368011474609 68.82299041748047 C 72.20344543457031 75.58535003662109 78.96497344970703 78.96794128417969 78.96497344970703 78.96794128417969 Z" stroke="none" fill="rgba(255,255,255,0.3)"/>
      </g>
      <g id="Icon-2" data-name="Icon" fill="rgba(218,246,246,0.6)" stroke-miterlimit="10">
        <path d="M27.654,74.244C11.186,67.57,0,54.507,0,39.482,0,17.679,23.569,0,52.645,0s52.645,17.679,52.645,39.482S81.719,78.968,52.645,78.968a69.924,69.924,0,0,1-10.694-.815c-10.737,5.919-25.5,7.4-25.5,7.4S23.988,81.781,27.654,74.244Z" stroke="none"/>
        <path d="M 24.25279808044434 82.22373962402344 C 24.43319511413574 82.18505859375 24.61573791503906 82.14533233642578 24.79978179931641 82.10466003417969 C 32.85652542114258 80.32407379150391 38.04890823364258 78.02027130126953 40.98605346679688 76.40118408203125 L 41.58340072631836 76.07189178466797 L 42.25747299194336 76.17622375488281 C 45.65156173706055 76.70156860351562 49.14652633666992 76.96792602539062 52.64529037475586 76.96792602539062 C 80.57119750976562 76.96792602539062 103.2905807495117 60.15203857421875 103.2905807495117 39.48249435424805 C 103.2905807495117 18.81458473205566 80.57119750976562 2.000002384185791 52.64529037475586 2.000002384185791 C 24.71938133239746 2.000002384185791 1.999999523162842 18.81458473205566 1.999999523162842 39.48249435424805 C 1.999999523162842 42.91994857788086 2.63085412979126 46.32538604736328 3.875035762786865 49.60424041748047 C 5.08861780166626 52.80242156982422 6.881563186645508 55.87407684326172 9.204071998596191 58.73383712768555 C 13.85698127746582 64.46312713623047 20.49674415588379 69.18553161621094 28.40552711486816 72.39049530029297 L 30.38918113708496 73.19435119628906 L 29.45285415649414 75.11900329589844 C 28.04919052124023 78.00429534912109 26.13996124267578 80.36936950683594 24.25279808044434 82.22373962402344 M 16.45276260375977 85.54785919189453 C 16.45276260375977 85.54785919189453 23.9877986907959 81.78089141845703 27.65438079833984 74.24407196044922 C 11.18603610992432 67.57041931152344 -5.343350721886964e-07 54.50654602050781 -5.343350721886964e-07 39.48249435424805 C -5.343350721886964e-07 17.67873001098633 23.56867218017578 2.323220087419031e-06 52.64529037475586 2.323220087419031e-06 C 81.71894836425781 2.323220087419031e-06 105.2905807495117 17.67873001098633 105.2905807495117 39.48249435424805 C 105.2905807495117 61.28920364379883 81.71894836425781 78.96792602539062 52.64529037475586 78.96792602539062 C 48.98054504394531 78.96792602539062 45.4051628112793 78.68724060058594 41.95156478881836 78.15269470214844 C 31.21469116210938 84.07138061523438 16.45276260375977 85.54785919189453 16.45276260375977 85.54785919189453 Z" stroke="none" fill="rgba(255,255,255,0.3)"/>
      </g>
      <path id="Icon-3" data-name="Icon" d="M39.193,16.451a3,3,0,0,1-3-3V3a3,3,0,0,1,3-3H49.645a3,3,0,0,1,3,3V13.451a3,3,0,0,1-3,3ZM3,16.451a3,3,0,0,1-3-3V3A3,3,0,0,1,3,0H13.451a3,3,0,0,1,3,3V13.451a3,3,0,0,1-3,3Z" transform="translate(26.322 29.613)" fill="#fff"/>
    </g>
  </g>
</svg>
