<svg xmlns="http://www.w3.org/2000/svg" xmlns:xlink="http://www.w3.org/1999/xlink" width="180" height="55" viewBox="0 0 180 55">
  <defs>
    <linearGradient id="linear-gradient" x1="0.808" y1="0.5" x2="-1.573" y2="0.5" gradientUnits="objectBoundingBox">
      <stop offset="0" stop-color="gold"/>
      <stop offset="0.075" stop-color="#fece00"/>
      <stop offset="0.48" stop-color="#fca704"/>
      <stop offset="0.803" stop-color="#fa8e07"/>
      <stop offset="1" stop-color="#fa8608"/>
    </linearGradient>
    <linearGradient id="linear-gradient-2" x1="0.862" y1="0.178" x2="-0.501" y2="1.948" gradientUnits="objectBoundingBox">
      <stop offset="0" stop-color="#e82b36"/>
      <stop offset="1" stop-color="#b4005a"/>
    </linearGradient>
    <linearGradient id="linear-gradient-3" x1="-0.507" y1="-0.956" x2="0.606" y2="0.489" gradientUnits="objectBoundingBox">
      <stop offset="0" stop-color="#2f8e5b"/>
      <stop offset="0.39" stop-color="#4ea157"/>
      <stop offset="0.768" stop-color="#67b054"/>
      <stop offset="1" stop-color="#70b653"/>
    </linearGradient>
  </defs>
  <g id="Group_1041" data-name="Group 1041" transform="translate(-25.459 -92.589)">
    <g id="Group_1037" data-name="Group 1037" transform="translate(25.459 92.589)">
      <rect id="Rectangle_1531" data-name="Rectangle 1531" width="178.751" height="53.751" rx="7.382" transform="translate(0.625 0.625)"/>
      <path id="Path_1534" data-name="Path 1534" d="M198.685,149.589H32.233a6.915,6.915,0,0,1-6.774-7.032V101.621a6.915,6.915,0,0,1,6.774-7.032H198.685a6.915,6.915,0,0,1,6.774,7.032v40.935A6.915,6.915,0,0,1,198.685,149.589ZM32.233,95.976a5.551,5.551,0,0,0-5.438,5.646v40.935a5.551,5.551,0,0,0,5.438,5.645H198.685a5.551,5.551,0,0,0,5.438-5.645V101.621a5.551,5.551,0,0,0-5.438-5.646Z" transform="translate(-25.459 -94.589)" fill="#96999c"/>
    </g>
    <g id="Group_1039" data-name="Group 1039" transform="translate(38.006 105.616)">
      <path id="Path_1535" data-name="Path 1535" d="M125.351,127.9a5.289,5.289,0,1,0,5.31,5.289A5.214,5.214,0,0,0,125.351,127.9Zm0,8.5a3.214,3.214,0,1,1,2.985-3.206A3.06,3.06,0,0,1,125.351,136.4Zm-11.582-8.5a5.289,5.289,0,1,0,5.309,5.289A5.213,5.213,0,0,0,113.77,127.9Zm0,8.5a3.214,3.214,0,1,1,2.985-3.206A3.06,3.06,0,0,1,113.77,136.4Zm-13.778-6.872v2.244h5.369a4.683,4.683,0,0,1-1.222,2.825,5.5,5.5,0,0,1-4.147,1.642,5.971,5.971,0,0,1,0-11.941,5.723,5.723,0,0,1,4.047,1.6l1.583-1.583a7.828,7.828,0,0,0-5.63-2.264,8.215,8.215,0,1,0,0,16.429,7.512,7.512,0,0,0,5.73-2.3,7.417,7.417,0,0,0,1.943-5.249,7.294,7.294,0,0,0-.121-1.4Zm56.345,1.743a4.916,4.916,0,0,0-4.529-3.366,5.026,5.026,0,0,0-4.988,5.289,5.176,5.176,0,0,0,5.248,5.289,5.261,5.261,0,0,0,4.408-2.344l-1.8-1.2a3.022,3.022,0,0,1-2.6,1.463,2.69,2.69,0,0,1-2.564-1.6l7.072-2.925Zm-7.213,1.764a2.9,2.9,0,0,1,2.765-3.086,2.047,2.047,0,0,1,1.963,1.122Zm-5.75,5.129H145.7V122.613h-2.323Zm-3.807-9.076h-.08A3.667,3.667,0,0,0,136.7,127.9a5.294,5.294,0,0,0,0,10.579,3.608,3.608,0,0,0,2.785-1.2h.08v.761c0,2.024-1.082,3.106-2.825,3.106a2.926,2.926,0,0,1-2.664-1.884l-2.024.841a5.042,5.042,0,0,0,4.689,3.126c2.725,0,5.029-1.6,5.029-5.51v-9.5h-2.2ZM136.9,136.4a3.217,3.217,0,0,1,0-6.411,3.231,3.231,0,0,1,0,6.411Zm30.32-13.784h-5.56V138.16h2.32v-5.89h3.24a4.835,4.835,0,1,0,0-9.656Zm.06,7.493h-3.3v-5.33h3.3a2.665,2.665,0,1,1,0,5.33Zm14.341-2.233a4.357,4.357,0,0,0-4.14,2.38l2.061.861a2.2,2.2,0,0,1,2.12-1.14,2.234,2.234,0,0,1,2.44,2v.16a5.142,5.142,0,0,0-2.421-.6c-2.22,0-4.48,1.22-4.48,3.5a3.592,3.592,0,0,0,3.861,3.42,3.272,3.272,0,0,0,2.96-1.52h.08v1.2h2.24v-5.96C186.344,129.414,184.284,127.873,181.624,127.873Zm-.28,8.521c-.76,0-1.82-.38-1.82-1.32,0-1.2,1.32-1.661,2.46-1.661a4.134,4.134,0,0,1,2.12.52A2.813,2.813,0,0,1,181.344,136.394Zm13.161-8.18-2.661,6.74h-.08l-2.76-6.74h-2.5l4.14,9.421-2.36,5.24h2.42l6.38-14.661Zm-20.9,9.946h2.32V122.613H173.6Z" transform="translate(-52.175 -109.744)" fill="#fff"/>
      <g id="Group_1038" data-name="Group 1038" transform="translate(0)">
        <path id="Path_1536" data-name="Path 1536" d="M42.261,106.746a2.489,2.489,0,0,0-.574,1.746v27.481a2.487,2.487,0,0,0,.574,1.745l.092.09,15.394-15.394v-.363L42.354,106.656Z" transform="translate(-41.687 -106.252)" fill="#40bff2"/>
        <path id="Path_1537" data-name="Path 1537" d="M67.59,130.557l-5.131-5.133v-.363l5.132-5.132.115.066,6.08,3.455c1.737.987,1.737,2.6,0,3.588l-6.08,3.455Z" transform="translate(-46.398 -109.262)" fill="url(#linear-gradient)"/>
        <path id="Path_1538" data-name="Path 1538" d="M63.164,132.049,57.916,126.8,42.43,142.287a2.022,2.022,0,0,0,2.582.077l18.152-10.314" transform="translate(-41.856 -110.821)" fill="url(#linear-gradient-2)"/>
        <path id="Path_1539" data-name="Path 1539" d="M63.164,116.865,45.012,106.551a2.022,2.022,0,0,0-2.582.076l15.486,15.486Z" transform="translate(-41.856 -106.133)" fill="url(#linear-gradient-3)"/>
      </g>
    </g>
    <g id="Group_1040" data-name="Group 1040" transform="translate(77.525 104.407)">
      <path id="Path_1540" data-name="Path 1540" d="M97.783,107.432a2.657,2.657,0,0,0-1.762-.68,2.811,2.811,0,0,0,0,5.617,2.122,2.122,0,0,0,2.336-1.976H96.276v-.86h3.206c0,2.57-1.37,3.78-3.462,3.78a3.754,3.754,0,0,1,0-7.507,3.615,3.615,0,0,1,2.474.967Z" transform="translate(-92.326 -105.808)" fill="#fff"/>
      <path id="Path_1541" data-name="Path 1541" d="M107.66,105.918v.923h-3.345v2.337h2.92v.924h-2.92v2.208h3.451v.924h-4.438v-7.316Z" transform="translate(-94.821 -105.833)" fill="#fff"/>
      <path id="Path_1542" data-name="Path 1542" d="M115.618,105.918v.934H113.4v6.382h-1v-6.382h-2.22v-.934Z" transform="translate(-96.376 -105.833)" fill="#fff"/>
      <path id="Path_1543" data-name="Path 1543" d="M123.05,105.918v7.316h-.987v-7.316Z" transform="translate(-99.07 -105.833)" fill="#fff"/>
      <path id="Path_1544" data-name="Path 1544" d="M130.452,105.918v.934h-2.22v6.382h-1v-6.382h-2.22v-.934Z" transform="translate(-99.74 -105.833)" fill="#fff"/>
      <path id="Path_1545" data-name="Path 1545" d="M139.973,105.808a3.754,3.754,0,1,1-3.7,3.759A3.71,3.71,0,0,1,139.973,105.808Zm0,6.551a2.8,2.8,0,1,0-2.708-2.792A2.727,2.727,0,0,0,139.973,112.359Z" transform="translate(-102.294 -105.808)" fill="#fff"/>
      <path id="Path_1546" data-name="Path 1546" d="M152.151,113.234l-3.334-5.511v5.511h-.987v-7.316h.977l3.3,5.468v-5.468h.987v7.316Z" transform="translate(-104.914 -105.833)" fill="#fff"/>
    </g>
  </g>
</svg>
