<svg xmlns="http://www.w3.org/2000/svg" width="168.326" height="40" viewBox="0 0 168.326 40">
  <g id="Group_1043" data-name="Group 1043" transform="translate(68.206 -1054.5)">
    <g id="Last_Seen" data-name="Last Seen" style="isolation: isolate">
      <g id="Group_1042" data-name="Group 1042" style="isolation: isolate">
        <path id="Path_1547" data-name="Path 1547" d="M-5.079,1083.554h-11.4V1064.41h4.312v15.646h7.088Z" fill="#2f3144"/>
        <path id="Path_1548" data-name="Path 1548" d="M8.458,1083.554H4.467v-1.963H4.413a4.454,4.454,0,0,1-4.071,2.3,4.26,4.26,0,0,1-3.131-1.127,4.043,4.043,0,0,1-1.141-3.011q0-3.978,4.712-4.593l3.711-.493q0-2.244-2.429-2.243a8.293,8.293,0,0,0-4.646,1.455V1070.7a10.416,10.416,0,0,1,2.41-.8,12.64,12.64,0,0,1,2.783-.348q5.847,0,5.847,5.834ZM4.493,1078v-.921l-2.483.32q-2.055.267-2.056,1.856a1.535,1.535,0,0,0,.5,1.182,1.929,1.929,0,0,0,1.355.46,2.5,2.5,0,0,0,1.936-.821A2.966,2.966,0,0,0,4.493,1078Z" fill="#2f3144"/>
        <path id="Path_1549" data-name="Path 1549" d="M10.9,1083.193v-3.417a9.008,9.008,0,0,0,2.075.934,6.873,6.873,0,0,0,1.956.307,4.189,4.189,0,0,0,1.769-.307.992.992,0,0,0,.648-.934.865.865,0,0,0-.294-.668,2.722,2.722,0,0,0-.754-.467,8.479,8.479,0,0,0-1.008-.361c-.365-.106-.717-.227-1.055-.36a10.247,10.247,0,0,1-1.435-.66,4.131,4.131,0,0,1-1.041-.822,3.217,3.217,0,0,1-.641-1.081,4.317,4.317,0,0,1-.22-1.455,3.743,3.743,0,0,1,.5-1.976,4.109,4.109,0,0,1,1.335-1.356,6.172,6.172,0,0,1,1.909-.774,9.992,9.992,0,0,1,2.236-.247,12.617,12.617,0,0,1,1.843.14,13.985,13.985,0,0,1,1.842.408v3.257a6.721,6.721,0,0,0-1.716-.7,7.269,7.269,0,0,0-1.8-.233,4.047,4.047,0,0,0-.781.073,2.674,2.674,0,0,0-.648.213,1.2,1.2,0,0,0-.44.362.824.824,0,0,0-.16.5.926.926,0,0,0,.24.641,2.085,2.085,0,0,0,.627.461,6.356,6.356,0,0,0,.862.347q.472.153.941.313a12.246,12.246,0,0,1,1.522.641,4.87,4.87,0,0,1,1.168.814,3.2,3.2,0,0,1,.747,1.095,4.373,4.373,0,0,1-.267,3.571,4.2,4.2,0,0,1-1.4,1.4,6.334,6.334,0,0,1-2.016.789,11.216,11.216,0,0,1-2.37.246A12.205,12.205,0,0,1,10.9,1083.193Z" fill="#2f3144"/>
        <path id="Path_1550" data-name="Path 1550" d="M32.088,1083.393a6.225,6.225,0,0,1-2.817.494q-4.458,0-4.459-4.632v-6.261H22.6v-3.111h2.216v-2.95l4.206-1.2v4.152h3.07v3.111h-3.07v5.527q0,2.136,1.695,2.136a2.861,2.861,0,0,0,1.375-.387Z" fill="#2f3144"/>
        <path id="Path_1551" data-name="Path 1551" d="M41.54,1082.819v-4.272a8.2,8.2,0,0,0,2.523,1.463,8.11,8.11,0,0,0,2.75.487,6.093,6.093,0,0,0,1.422-.147,3.3,3.3,0,0,0,1.014-.408,1.755,1.755,0,0,0,.608-.614,1.522,1.522,0,0,0,.2-.767,1.666,1.666,0,0,0-.32-1,3.484,3.484,0,0,0-.874-.814,9.219,9.219,0,0,0-1.316-.721q-.76-.347-1.642-.707a8.369,8.369,0,0,1-3.343-2.283,4.982,4.982,0,0,1-1.1-3.258,5.186,5.186,0,0,1,.6-2.57,5.106,5.106,0,0,1,1.635-1.768,7.326,7.326,0,0,1,2.4-1.021,12.316,12.316,0,0,1,2.884-.328,17.468,17.468,0,0,1,2.649.18,10.4,10.4,0,0,1,2.13.555v3.991a6.5,6.5,0,0,0-1.047-.587,8.291,8.291,0,0,0-1.169-.42,8.85,8.85,0,0,0-1.195-.248,8.493,8.493,0,0,0-1.128-.08,5.8,5.8,0,0,0-1.335.141,3.39,3.39,0,0,0-1.014.393,1.962,1.962,0,0,0-.641.607,1.447,1.447,0,0,0-.227.8,1.51,1.51,0,0,0,.254.861,2.886,2.886,0,0,0,.72.72,7.5,7.5,0,0,0,1.135.668q.667.328,1.509.675a16.663,16.663,0,0,1,2.062,1.021,7.336,7.336,0,0,1,1.569,1.221,4.757,4.757,0,0,1,1,1.556,6.214,6.214,0,0,1-.26,4.726,4.942,4.942,0,0,1-1.649,1.762,7.133,7.133,0,0,1-2.423.968,13.983,13.983,0,0,1-2.917.293,16.216,16.216,0,0,1-3-.267A9.039,9.039,0,0,1,41.54,1082.819Z" fill="#2f3144"/>
        <path id="Path_1552" data-name="Path 1552" d="M69.615,1077.92H60.7q.215,2.977,3.752,2.977a7.326,7.326,0,0,0,3.965-1.068v3.044a10.425,10.425,0,0,1-4.927,1.014,6.363,6.363,0,0,1-6.968-6.955,7.312,7.312,0,0,1,1.976-5.393,6.583,6.583,0,0,1,4.859-1.99,5.975,5.975,0,0,1,4.626,1.776,6.839,6.839,0,0,1,1.635,4.819Zm-3.911-2.59q0-2.937-2.377-2.937a2.266,2.266,0,0,0-1.755.841,3.8,3.8,0,0,0-.9,2.1Z" fill="#2f3144"/>
        <path id="Path_1553" data-name="Path 1553" d="M84.407,1077.92H75.489q.215,2.977,3.752,2.977a7.32,7.32,0,0,0,3.964-1.068v3.044a10.418,10.418,0,0,1-4.926,1.014,6.363,6.363,0,0,1-6.968-6.955,7.316,7.316,0,0,1,1.975-5.393,6.585,6.585,0,0,1,4.86-1.99,5.976,5.976,0,0,1,4.626,1.776,6.843,6.843,0,0,1,1.635,4.819Zm-3.912-2.59q0-2.937-2.376-2.937a2.266,2.266,0,0,0-1.755.841,3.812,3.812,0,0,0-.9,2.1Z" fill="#2f3144"/>
        <path id="Path_1554" data-name="Path 1554" d="M100.12,1083.554H95.915v-7.6q0-3.177-2.27-3.177a2.254,2.254,0,0,0-1.8.841,3.2,3.2,0,0,0-.708,2.136v7.8H86.917v-13.671h4.218v2.163h.054a4.836,4.836,0,0,1,4.392-2.5q4.539,0,4.539,5.634Z" fill="#2f3144"/>
      </g>
    </g>
    <path id="Path_1555" data-name="Path 1555" d="M-48.206,1094.5a20.022,20.022,0,0,1-20-20,20.022,20.022,0,0,1,20-20,19.806,19.806,0,0,1,8.846,2.059,3.042,3.042,0,0,1,1.381,4.075,3.042,3.042,0,0,1-4.075,1.38,13.783,13.783,0,0,0-6.152-1.429A13.931,13.931,0,0,0-62.122,1074.5a13.931,13.931,0,0,0,13.916,13.915,13.939,13.939,0,0,0,13.647-11.182,3.042,3.042,0,0,1,3.578-2.391,3.043,3.043,0,0,1,2.39,3.578A20.041,20.041,0,0,1-48.206,1094.5Z" fill="#28bb45"/>
    <path id="Path_1556" data-name="Path 1556" d="M-46.489,1081.835a3.034,3.034,0,0,1-2.152-.891l-7.512-7.512a3.043,3.043,0,0,1,0-4.3,3.042,3.042,0,0,1,4.3,0l7.513,7.513a3.042,3.042,0,0,1,0,4.3A3.033,3.033,0,0,1-46.489,1081.835Z" fill="#9874ff"/>
    <path id="Path_1557" data-name="Path 1557" d="M-46.275,1081.835a3.033,3.033,0,0,1-2.151-.891,3.042,3.042,0,0,1,0-4.3l11.806-11.806a3.043,3.043,0,0,1,4.3,0,3.042,3.042,0,0,1,0,4.3l-11.806,11.806A3.034,3.034,0,0,1-46.275,1081.835Z" fill="#4896ff"/>
    <path id="Path_1558" data-name="Path 1558" d="M-46.382,1081.83a3.028,3.028,0,0,0,2.044-.886,3.042,3.042,0,0,0,0-4.3l-2.044-2.044-2.044,2.044a3.042,3.042,0,0,0,0,4.3A3.028,3.028,0,0,0-46.382,1081.83Z" fill="#2e3a51"/>
  </g>
</svg>
