<svg xmlns="http://www.w3.org/2000/svg" xmlns:xlink="http://www.w3.org/1999/xlink" width="360" height="360" viewBox="0 0 360 360">
  <defs>
    <linearGradient id="linear-gradient" x1="0.5" x2="0.5" y2="1" gradientUnits="objectBoundingBox">
      <stop offset="0" stop-color="#a0d4d1"/>
      <stop offset="1" stop-color="#6fb8ad"/>
    </linearGradient>
    <clipPath id="clip-_1">
      <rect width="360" height="360"/>
    </clipPath>
  </defs>
  <g id="_1" data-name="1" clip-path="url(#clip-_1)">
    <rect width="360" height="360" fill="#fff"/>
    <circle id="Ellipse_44" data-name="Ellipse 44" cx="141" cy="141" r="141" transform="translate(78.471 47.832)" fill="url(#linear-gradient)"/>
    <g id="Icon" transform="translate(0 34.361)" fill="rgba(218,246,246,0.6)">
      <path d="M75.653,0A75.653,75.653,0,1,1,0,75.653,75.653,75.653,0,0,1,75.653,0Z" stroke="none"/>
      <path d="M 75.6527099609375 3 C 65.84333801269531 3 56.32897186279297 4.920486450195313 47.37390899658203 8.708160400390625 C 43.069580078125 10.52874755859375 38.91783905029297 12.78227233886719 35.03397369384766 15.40617370605469 C 31.18625640869141 18.00563049316406 27.56790924072266 20.99105834960938 24.27947235107422 24.27947235107422 C 20.99105834960938 27.56790924072266 18.00563049316406 31.18625640869141 15.40617370605469 35.03397369384766 C 12.78227233886719 38.91783905029297 10.52874755859375 43.069580078125 8.708160400390625 47.37390899658203 C 4.920486450195313 56.32897186279297 3 65.84333801269531 3 75.6527099609375 C 3 85.46208190917969 4.920486450195313 94.97644805908203 8.708160400390625 103.9314880371094 C 10.52874755859375 108.2358169555664 12.78227233886719 112.387580871582 15.40617370605469 116.2714233398438 C 18.00563049316406 120.1191711425781 20.99105834960938 123.7374954223633 24.27947235107422 127.0259246826172 C 27.56790924072266 130.3143615722656 31.18625640869141 133.2997741699219 35.03397369384766 135.8992614746094 C 38.91783905029297 138.5231475830078 43.069580078125 140.7766723632813 47.37390899658203 142.5972595214844 C 56.32897186279297 146.3849334716797 65.84333801269531 148.305419921875 75.6527099609375 148.305419921875 C 85.46208190917969 148.305419921875 94.97644805908203 146.3849334716797 103.9314880371094 142.5972595214844 C 108.2358169555664 140.7766723632813 112.387580871582 138.5231475830078 116.2714233398438 135.8992614746094 C 120.1191711425781 133.2997741699219 123.7374954223633 130.3143615722656 127.0259246826172 127.0259246826172 C 130.3143615722656 123.7374954223633 133.2997741699219 120.1191711425781 135.8992614746094 116.2714233398438 C 138.5231475830078 112.387580871582 140.7766723632813 108.2358169555664 142.5972595214844 103.9314880371094 C 146.3849334716797 94.97644805908203 148.305419921875 85.46208190917969 148.305419921875 75.6527099609375 C 148.305419921875 65.84333801269531 146.3849334716797 56.32897186279297 142.5972595214844 47.37390899658203 C 140.7766723632813 43.069580078125 138.5231475830078 38.91783905029297 135.8992614746094 35.03397369384766 C 133.2997741699219 31.18625640869141 130.3143615722656 27.56790924072266 127.0259246826172 24.27947235107422 C 123.7374954223633 20.99105834960938 120.1191711425781 18.00563049316406 116.2714233398438 15.40617370605469 C 112.387580871582 12.78227233886719 108.2358169555664 10.52874755859375 103.9314880371094 8.708160400390625 C 94.97644805908203 4.920486450195313 85.46208190917969 3 75.6527099609375 3 M 75.6527099609375 0 C 117.4345397949219 0 151.305419921875 33.87086486816406 151.305419921875 75.6527099609375 C 151.305419921875 117.4345397949219 117.4345397949219 151.305419921875 75.6527099609375 151.305419921875 C 33.87086486816406 151.305419921875 0 117.4345397949219 0 75.6527099609375 C 0 33.87086486816406 33.87086486816406 0 75.6527099609375 0 Z" stroke="none" fill="rgba(255,255,255,0.3)"/>
    </g>
  </g>
</svg>
