<svg id="logo" xmlns="http://www.w3.org/2000/svg" width="40" height="40" viewBox="0 0 40 40">
  <g id="Group_1014" data-name="Group 1014" transform="translate(2.477 2.435)">
    <g id="Group_1012" data-name="Group 1012" transform="translate(0 0)">
      <path id="Path_516" data-name="Path 516" d="M41.117,27.147a1.566,1.566,0,1,1,0-3.133h1.817A17.443,17.443,0,0,0,27.22,8.636v1.638a1.568,1.568,0,0,1-3.136,0V8.6A17.49,17.49,0,0,0,8.192,23.944H9.8a1.566,1.566,0,1,1,0,3.133H8.085a17.889,17.889,0,0,0,2.209,7.512C8.085,36.154,7.266,40.355,8.834,42.1c1.675,1.851,6.2,1.068,7.946-.926a17.422,17.422,0,0,0,7.269,2.278V41.708a1.568,1.568,0,0,1,3.136,0v1.709a17.516,17.516,0,0,0,15.821-16.34H41.117Z" transform="translate(-8.022 -8.565)" fill="#28bb45"/>
      <path id="Path_517" data-name="Path 517" d="M54.63,97.3a1.522,1.522,0,0,0-1.53,1.53v1.7c.487.035.974.07,1.461.07.557,0,1.113-.035,1.635-.07v-1.67A1.581,1.581,0,0,0,54.63,97.3Z" transform="translate(-37.001 -65.613)" fill="#fff"/>
      <path id="Path_518" data-name="Path 518" d="M54.565,11.735A1.522,1.522,0,0,0,56.1,10.2V8.57c-.522-.035-1.078-.07-1.635-.07-.487,0-.974.035-1.461.07V10.2A1.574,1.574,0,0,0,54.565,11.735Z" transform="translate(-36.936 -8.5)" fill="#fff"/>
      <path id="Path_519" data-name="Path 519" d="M99.9,51.8H98.13a1.53,1.53,0,1,0,0,3.061h1.878c.035-.348.035-.7.035-1.043C100.009,53.122,99.974,52.461,99.9,51.8Z" transform="translate(-64.955 -36.352)" fill="#fff"/>
      <path id="Path_520" data-name="Path 520" d="M11.37,53.33a1.522,1.522,0,0,0-1.53-1.53H8.2a19.767,19.767,0,0,0-.1,2.052c0,.348,0,.7.035,1.043H9.8A1.559,1.559,0,0,0,11.37,53.33Z" transform="translate(-8.073 -36.352)" fill="#fff"/>
    </g>
    <g id="Group_1013" data-name="Group 1013" transform="translate(7.176 9.949)">
      <path id="Path_521" data-name="Path 521" d="M41.7,40.221l-3.9,3.9-7.548-7.548a1.476,1.476,0,0,0-2.087,2.087l8.626,8.626a1.513,1.513,0,0,0,2.087,0l4.939-4.974a1.449,1.449,0,0,0,0-2.087A1.491,1.491,0,0,0,41.7,40.221Z" transform="translate(-27.725 -36.125)" fill="#fff"/>
    </g>
  </g>
  <g id="Group_1015" data-name="Group 1015">
    <path id="Path_522" data-name="Path 522" d="M21.781,2.4A19.656,19.656,0,0,0,5.008,32.12L2.2,41.6l9.524-2.77A19.622,19.622,0,1,0,21.781,2.4Zm0,36.892a17.129,17.129,0,0,1-9.275-2.7l-.426-.284L5.647,38.191l1.884-6.427-.284-.426a17.359,17.359,0,1,1,14.535,7.954Z" transform="translate(-1.748 -2.087)" fill="#fff"/>
    <path id="Path_523" data-name="Path 523" d="M.9,41.5l2.913-9.9A19.954,19.954,0,0,1,20.9,1.5,19.7,19.7,0,0,1,35,7.356a19.7,19.7,0,0,1,0,28.11,19.967,19.967,0,0,1-14.1,5.856,19.691,19.691,0,0,1-10.089-2.768Zm10.018-3.62.107.071A19.3,19.3,0,1,0,1.717,21.411a19.483,19.483,0,0,0,2.735,9.973l.071.106L1.859,40.542Zm10.018,1.136a17.665,17.665,0,0,1-9.449-2.733l-.32-.213L4.31,38.093l2.025-6.85-.213-.319A17.672,17.672,0,0,1,20.936,3.807a17.6,17.6,0,1,1,0,35.209ZM11.273,35.4l.568.355a16.8,16.8,0,0,0,9.094,2.662,17,17,0,1,0-16.945-17,16.821,16.821,0,0,0,2.664,9.157l.355.568L5.234,37.17Z" transform="translate(-0.9 -1.5)" fill="#fff"/>
  </g>
</svg>
