<svg xmlns="http://www.w3.org/2000/svg" xmlns:xlink="http://www.w3.org/1999/xlink" width="132" height="132" viewBox="0 0 132 132">
  <defs>
    <linearGradient id="linear-gradient" x1="0.5" y1="0.922" x2="0.5" gradientUnits="objectBoundingBox">
      <stop offset="0" stop-color="#7eaff2"/>
      <stop offset="1" stop-color="#bed8fb"/>
    </linearGradient>
    <clipPath id="clip-Notifications">
      <rect width="132" height="132"/>
    </clipPath>
  </defs>
  <g id="Notifications" clip-path="url(#clip-Notifications)">
    <rect width="132" height="132" fill="#fff"/>
    <g id="Notifications-2" data-name="Notifications" transform="translate(-406.306 -3102.029)">
      <g id="Iconly_Bold_Notification" data-name="Iconly/Bold/Notification" transform="translate(451.333 3133.237)">
        <g id="Notification">
          <path id="Notification-2" data-name="Notification" d="M37.254,93.177a16.89,16.89,0,0,1-8-3.419,7.239,7.239,0,0,1-3.247-5.473c0-2.352,2.155-3.427,4.15-3.889,2.335-.491,16.548-.491,18.883,0,1.995.462,4.15,1.537,4.15,3.889a7.249,7.249,0,0,1-3.242,5.477,16.964,16.964,0,0,1-7.993,3.415,18.646,18.646,0,0,1-2.386.156A17.112,17.112,0,0,1,37.254,93.177Zm-19.69-19.69A21.163,21.163,0,0,1,4.032,66.893,16.869,16.869,0,0,1,0,55.793c0-4.082.832-7.846,3.41-10.781,3.515-3.982,4.96-7.434,4.96-13.3V29.728c0-7.85,1.957-12.982,5.989-18.005A33.007,33.007,0,0,1,39.459,0h.42A32.859,32.859,0,0,1,65.39,12.247c3.822,4.922,5.578,9.841,5.578,17.48v1.987a18.147,18.147,0,0,0,4.956,13.3c2.583,2.936,3.41,6.7,3.41,10.781a16.865,16.865,0,0,1-4.028,11.1,21.182,21.182,0,0,1-13.532,6.594c-7.333.622-14.671,1.151-22.1,1.151A194.547,194.547,0,0,1,17.564,73.487Z" fill="url(#linear-gradient)"/>
        </g>
      </g>
      <g id="Icon" transform="translate(411.945 3107.487)" fill="rgba(218,246,246,0.6)">
        <path d="M43.182,0A43.182,43.182,0,1,1,0,43.182,43.182,43.182,0,0,1,43.182,0Z" stroke="none"/>
        <path d="M 43.18188095092773 1.999992370605469 C 37.62148284912109 1.999992370605469 32.22846984863281 3.088554382324219 27.15264511108398 5.235443115234375 C 22.24897003173828 7.309532165527344 17.8446044921875 10.27916717529297 14.0618896484375 14.0618896484375 C 10.27916717529297 17.8446044921875 7.309532165527344 22.24897003173828 5.235443115234375 27.15264511108398 C 3.088554382324219 32.22846984863281 1.999992370605469 37.62148284912109 1.999992370605469 43.18188095092773 C 1.999992370605469 48.74227905273438 3.088554382324219 54.13529205322266 5.235443115234375 59.21110534667969 C 7.309532165527344 64.11477661132812 10.27916717529297 68.51914215087891 14.0618896484375 72.30186462402344 C 17.8446044921875 76.08457946777344 22.24897003173828 79.05421447753906 27.15264511108398 81.12830352783203 C 32.22846984863281 83.27519226074219 37.62148284912109 84.36375427246094 43.18188095092773 84.36375427246094 C 48.74227905273438 84.36375427246094 54.13529205322266 83.27519226074219 59.21110534667969 81.12830352783203 C 64.11477661132812 79.05421447753906 68.51914215087891 76.08457946777344 72.30186462402344 72.30186462402344 C 76.08457946777344 68.51914215087891 79.05421447753906 64.11477661132812 81.12830352783203 59.21110534667969 C 83.27519226074219 54.13529205322266 84.36375427246094 48.74227905273438 84.36375427246094 43.18188095092773 C 84.36375427246094 37.62148284912109 83.27519226074219 32.22846984863281 81.12830352783203 27.15264511108398 C 79.05421447753906 22.24897003173828 76.08457946777344 17.8446044921875 72.30186462402344 14.0618896484375 C 68.51914215087891 10.27916717529297 64.11477661132812 7.309532165527344 59.21110534667969 5.235443115234375 C 54.13529205322266 3.088554382324219 48.74227905273438 1.999992370605469 43.18188095092773 1.999992370605469 M 43.18188095092773 -7.62939453125e-06 C 67.03057098388672 -7.62939453125e-06 86.36375427246094 19.33318328857422 86.36375427246094 43.18188095092773 C 86.36375427246094 67.03057098388672 67.03057098388672 86.36375427246094 43.18188095092773 86.36375427246094 C 19.33318328857422 86.36375427246094 -7.62939453125e-06 67.03057098388672 -7.62939453125e-06 43.18188095092773 C -7.62939453125e-06 19.33318328857422 19.33318328857422 -7.62939453125e-06 43.18188095092773 -7.62939453125e-06 Z" stroke="none" fill="rgba(255,255,255,0.3)"/>
      </g>
    </g>
  </g>
</svg>
