<svg xmlns="http://www.w3.org/2000/svg" xmlns:xlink="http://www.w3.org/1999/xlink" width="168.584" height="146.198" viewBox="0 0 168.584 146.198">
  <defs>
    <linearGradient id="linear-gradient" x1="0.5" x2="0.5" y2="1" gradientUnits="objectBoundingBox">
      <stop offset="0" stop-color="#a0d4d1"/>
      <stop offset="1" stop-color="#6fb8ad"/>
    </linearGradient>
  </defs>
  <g id="Group_1047" data-name="Group 1047" transform="translate(-859.553 -756.593)">
    <ellipse id="Ellipse_39" data-name="Ellipse 39" cx="50.359" cy="49.618" rx="50.359" ry="49.618" transform="translate(988.137 868.343) rotate(160)" fill="url(#linear-gradient)"/>
    <g id="Icon" transform="translate(1028.137 827.707) rotate(160)" fill="rgba(218,246,246,0.6)">
      <path d="M37.839,0A37.839,37.839,0,1,1,0,37.839,37.839,37.839,0,0,1,37.839,0Z" stroke="none"/>
      <path d="M 37.83869552612305 1.999992370605469 C 32.99961853027344 1.999992370605469 28.30635070800781 2.947280883789063 23.88926315307617 4.8155517578125 C 19.62186050415039 6.620521545410156 15.78891754150391 9.20489501953125 12.49690628051758 12.49690628051758 C 9.20489501953125 15.78891754150391 6.620521545410156 19.62186050415039 4.8155517578125 23.88926315307617 C 2.947280883789063 28.30635070800781 1.999992370605469 32.99961853027344 1.999992370605469 37.83869552612305 C 1.999992370605469 42.67776107788086 2.947280883789063 47.37102890014648 4.8155517578125 51.78811645507813 C 6.620521545410156 56.05551910400391 9.20489501953125 59.88846206665039 12.49690628051758 63.18047332763672 C 15.78891754150391 66.47248840332031 19.62186050415039 69.05686187744141 23.88926315307617 70.86181640625 C 28.30635070800781 72.73009490966797 32.99961853027344 73.67738342285156 37.83869552612305 73.67738342285156 C 42.67776107788086 73.67738342285156 47.37102890014648 72.73009490966797 51.78811645507813 70.86181640625 C 56.05551910400391 69.05686187744141 59.88846206665039 66.47248840332031 63.18047332763672 63.18047332763672 C 66.47248840332031 59.88846206665039 69.05686187744141 56.05551910400391 70.86181640625 51.78811645507813 C 72.73009490966797 47.37102890014648 73.67738342285156 42.67776107788086 73.67738342285156 37.83869552612305 C 73.67738342285156 32.99961853027344 72.73009490966797 28.30635070800781 70.86181640625 23.88926315307617 C 69.05686187744141 19.62186050415039 66.47248840332031 15.78891754150391 63.18047332763672 12.49690628051758 C 59.88846206665039 9.20489501953125 56.05551910400391 6.620521545410156 51.78811645507813 4.8155517578125 C 47.37102890014648 2.947280883789063 42.67776107788086 1.999992370605469 37.83869552612305 1.999992370605469 M 37.83869552612305 -7.62939453125e-06 C 58.73641967773438 -7.62939453125e-06 75.67738342285156 16.94095230102539 75.67738342285156 37.83869552612305 C 75.67738342285156 58.73641967773438 58.73641967773438 75.67738342285156 37.83869552612305 75.67738342285156 C 16.94095230102539 75.67738342285156 -7.62939453125e-06 58.73641967773438 -7.62939453125e-06 37.83869552612305 C -7.62939453125e-06 16.94095230102539 16.94095230102539 -7.62939453125e-06 37.83869552612305 -7.62939453125e-06 Z" stroke="none" fill="rgba(255,255,255,0.3)"/>
    </g>
  </g>
</svg>
