<svg xmlns="http://www.w3.org/2000/svg" xmlns:xlink="http://www.w3.org/1999/xlink" width="132" height="132" viewBox="0 0 132 132">
  <defs>
    <clipPath id="clip-path">
      <rect id="Rectangle_1763" data-name="Rectangle 1763" width="132" height="132" fill="#fff"/>
    </clipPath>
    <linearGradient id="linear-gradient" x1="0.5" x2="0.065" y2="0.922" gradientUnits="objectBoundingBox">
      <stop offset="0" stop-color="#bed8fb"/>
      <stop offset="1" stop-color="#7eaff2"/>
    </linearGradient>
    <clipPath id="clip-Status_Saver">
      <rect width="132" height="132"/>
    </clipPath>
  </defs>
  <g id="Status_Saver" data-name="Status Saver" clip-path="url(#clip-Status_Saver)">
    <g id="Mask_Group_1" data-name="Mask Group 1" clip-path="url(#clip-path)">
      <path id="Exclusion_1" data-name="Exclusion 1" d="M6754.3,86.6h-.087a43.093,43.093,0,0,1-21.692-5.867l-16.792,4.578a2.86,2.86,0,0,1-.75.1,2.817,2.817,0,0,1-2.219-1.109,2.769,2.769,0,0,1-.471-2.425l4.567-16.788A43.3,43.3,0,0,1,6754.3,0c.412,0,.813.006,1.225.017a42.015,42.015,0,0,1,16.014,3.656,44.454,44.454,0,0,1,22.383,22.382,42.04,42.04,0,0,1,3.659,16.018A43.267,43.267,0,0,1,6754.3,86.6Zm-15.705-43.292a1.874,1.874,0,0,0-1.394,3.127l15,16.674a1.925,1.925,0,0,0,.211.212,2.837,2.837,0,0,0,4.008-.212l15-16.674a1.872,1.872,0,0,0-1.393-3.127H6758.74V25.589h-8.858V43.305Z" transform="translate(-6710.841 13.855)" stroke="rgba(0,0,0,0)" stroke-miterlimit="10" stroke-width="1" fill="url(#linear-gradient)"/>
      <g id="Union_2" data-name="Union 2" transform="translate(131.803 118.759) rotate(180)" fill="rgba(218,246,246,0.6)">
        <path d="M43.864,0A43.717,43.717,0,0,0,21.843,5.956L4.8,1.309A2.844,2.844,0,0,0,1.3,4.8l4.637,17.04A43.989,43.989,0,0,0,45.2,87.887c22.935-.633,42.054-19.753,42.692-42.69A43.953,43.953,0,0,0,43.951,0Z" stroke="none"/>
        <path d="M 43.8635139465332 2 C 36.49243545532227 2 29.22626113891602 3.965469360351562 22.85054016113281 7.683937072753906 L 22.12604522705078 8.106483459472656 L 4.272476196289062 3.238922119140625 C 4.192451477050781 3.217109680175781 4.113304138183594 3.206039428710938 4.037246704101562 3.206039428710938 C 3.784805297851562 3.206039428710938 3.536705017089844 3.333457946777344 3.373580932617188 3.546882629394531 C 3.260597229003906 3.694709777832031 3.144783020019531 3.940284729003906 3.234611511230469 4.270469665527344 L 8.091819763183594 22.11861419677734 L 7.670005798339844 22.84243774414062 C 3.943954467773438 29.23614883422852 1.983329772949219 36.53444290161133 2.000114440917969 43.95284271240234 C 2.000114440917969 49.61698913574219 3.109367370605469 55.11074829101562 5.29705810546875 60.28150939941406 C 7.41046142578125 65.27665710449219 10.43632507324219 69.76328277587891 14.29061889648438 73.61673736572266 C 18.14475250244141 77.47003173828125 22.63207244873047 80.4951171875 27.62795639038086 82.60797119140625 C 32.79904937744141 84.79493713378906 38.2928352355957 85.90381622314453 43.95672988891602 85.90381622314453 C 44.35597991943359 85.90381622314453 44.74459457397461 85.8984375 45.14475631713867 85.88739776611328 C 50.48764801025391 85.73992156982422 55.70182037353516 84.54907989501953 60.64244842529297 82.34793090820312 C 65.42198181152344 80.21855926513672 69.74547576904297 77.23885345458984 73.49285888671875 73.49156188964844 C 77.24021148681641 69.74429321289062 80.22026062011719 65.42063903808594 82.35023498535156 60.64070892333984 C 84.55197906494141 55.69973373413086 85.74369049072266 50.48501586914062 85.89223480224609 45.14177322387695 C 86.05200958251953 39.35601425170898 85.05778503417969 33.72761535644531 82.93717956542969 28.41293334960938 C 80.8929443359375 23.28964233398438 77.89647674560547 18.67709350585938 74.03102111816406 14.70343017578125 C 70.16181945800781 10.72590637207031 65.62826538085938 7.599945068359375 60.55625915527344 5.412376403808594 C 55.30642318725586 3.148078918457031 49.71974182128906 2 43.95140838623047 2 L 43.8635139465332 2 M 43.8635139465332 0 L 43.95140838623047 0 C 68.64483642578125 0 88.57749938964844 20.35374450683594 87.89147186279297 45.19698715209961 C 87.25376892089844 68.13397216796875 68.13456726074219 87.25358581542969 45.19994354248047 87.88664245605469 C 44.78299713134766 87.89814758300781 44.37107086181641 87.90380859375 43.95672607421875 87.90380859375 C 19.68510437011719 87.90380859375 0.00011444091796875 68.22690582275391 0.00011444091796875 43.95284271240234 C -0.0174713134765625 36.18161392211914 2.030380249023438 28.54758834838867 5.942024230957031 21.83542633056641 L 1.304794311523438 4.795654296875 C 0.7286376953125 2.677734375 2.675918579101562 0.7307205200195312 4.7984619140625 1.309318542480469 L 21.84294128417969 5.956291198730469 C 28.52851486206055 2.057121276855469 36.12911605834961 0 43.8635139465332 0 Z" stroke="none" fill="rgba(255,255,255,0.3)"/>
      </g>
    </g>
  </g>
</svg>
