<svg xmlns="http://www.w3.org/2000/svg" width="123.409" height="123.409" viewBox="0 0 123.409 123.409">
  <g id="Icon" transform="translate(123.409 90.478) rotate(160)" fill="rgba(218,246,246,0.6)">
    <path d="M48.142,0A48.142,48.142,0,1,1,0,48.142,48.142,48.142,0,0,1,48.142,0Z" stroke="none"/>
    <path d="M 48.14235305786133 1.999992370605469 C 41.91229629516602 1.999992370605469 35.86965179443359 3.219711303710938 30.18228149414063 5.625267028808594 C 24.68792724609375 7.949195861816406 19.75306701660156 11.27649688720703 15.51477813720703 15.51477813720703 C 11.27649688720703 19.75306701660156 7.949195861816406 24.68792724609375 5.625267028808594 30.18228149414063 C 3.219711303710938 35.86965179443359 1.999992370605469 41.91229629516602 1.999992370605469 48.14235305786133 C 1.999992370605469 54.37240982055664 3.219711303710938 60.41505432128906 5.625267028808594 66.10242462158203 C 7.949195861816406 71.59677886962891 11.27649688720703 76.53163909912109 15.51477813720703 80.76992797851563 C 19.75306701660156 85.00819396972656 24.68792724609375 88.33551025390625 30.18228149414063 90.65943908691406 C 35.86965179443359 93.06499481201172 41.91229629516602 94.28471374511719 48.14235305786133 94.28471374511719 C 54.37240982055664 94.28471374511719 60.41505432128906 93.06499481201172 66.10242462158203 90.65943908691406 C 71.59677886962891 88.33551025390625 76.53163909912109 85.00819396972656 80.76992797851563 80.76992797851563 C 85.00819396972656 76.53163909912109 88.33551025390625 71.59677886962891 90.65943908691406 66.10242462158203 C 93.06499481201172 60.41505432128906 94.28471374511719 54.37240982055664 94.28471374511719 48.14235305786133 C 94.28471374511719 41.91229629516602 93.06499481201172 35.86965179443359 90.65943908691406 30.18228149414063 C 88.33551025390625 24.68792724609375 85.00819396972656 19.75306701660156 80.76992797851563 15.51477813720703 C 76.53163909912109 11.27649688720703 71.59677886962891 7.949195861816406 66.10242462158203 5.625267028808594 C 60.41505432128906 3.219711303710938 54.37240982055664 1.999992370605469 48.14235305786133 1.999992370605469 M 48.14235305786133 -7.62939453125e-06 C 74.73062133789063 -7.62939453125e-06 96.28471374511719 21.55406951904297 96.28471374511719 48.14235305786133 C 96.28471374511719 74.73062133789063 74.73062133789063 96.28471374511719 48.14235305786133 96.28471374511719 C 21.55406951904297 96.28471374511719 -7.62939453125e-06 74.73062133789063 -7.62939453125e-06 48.14235305786133 C -7.62939453125e-06 21.55406951904297 21.55406951904297 -7.62939453125e-06 48.14235305786133 -7.62939453125e-06 Z" stroke="none" fill="rgba(255,255,255,0.3)"/>
  </g>
</svg>
