<svg xmlns="http://www.w3.org/2000/svg" xmlns:xlink="http://www.w3.org/1999/xlink" width="132" height="132" viewBox="0 0 132 132">
  <defs>
    <linearGradient id="linear-gradient" x1="0.5" x2="0.5" y2="1" gradientUnits="objectBoundingBox">
      <stop offset="0" stop-color="#bed8fb"/>
      <stop offset="1" stop-color="#7eb0f2"/>
    </linearGradient>
    <clipPath id="clip-User">
      <rect width="132" height="132"/>
    </clipPath>
  </defs>
  <g id="User" clip-path="url(#clip-User)">
    <rect width="132" height="132" fill="#fff"/>
    <g id="User-2" data-name="User" transform="translate(48.145 -14)">
      <g id="Icon" transform="translate(-2.555 27.145)" fill="url(#linear-gradient)">
        <path d="M0,72.018A36.8,36.8,0,0,1,23.361,37.742a20.488,20.488,0,0,1-5.742-14.251V20.555a20.554,20.554,0,1,1,41.108,0v2.936a20.5,20.5,0,0,1-6.634,15.123,36.793,36.793,0,0,1,21.317,33.4c0,10.51-16.433,13.137-36.705,13.137S0,82.528,0,72.018Z" stroke="none"/>
        <path d="M 36.70503616333008 84.6546630859375 C 48.16191482543945 84.6546630859375 56.60525894165039 83.80204010009766 62.51752471923828 82.04808807373047 C 65.88772583007812 81.04827880859375 68.46761322021484 79.73265075683594 70.18553924560547 78.13778686523438 C 72.01886749267578 76.43578338623047 72.91007232666016 74.43383026123047 72.91007232666016 72.01755523681641 C 72.91007232666016 64.95624542236328 70.8843994140625 58.11155319213867 67.05204772949219 52.22345352172852 C 63.31724548339844 46.48523330688477 58.07176971435547 41.93625259399414 51.8827018737793 39.06830978393555 L 51.20383453369141 38.75373077392578 L 51.75420379638672 38.24686431884766 C 53.77420425415039 36.38653182983398 55.36530303955078 34.17809677124023 56.48331451416016 31.68290901184082 C 57.64033508300781 29.10064315795898 58.22700119018555 26.34461975097656 58.22700119018555 23.49139785766602 L 58.22700119018555 20.5552978515625 C 58.22700119018555 17.84739875793457 57.69685745239258 15.22086524963379 56.65127944946289 12.74864292144775 C 55.64126968383789 10.36049842834473 54.19521331787109 8.215664863586426 52.35327911376953 6.37373161315918 C 50.51136016845703 4.531798362731934 48.36653518676758 3.085742712020874 45.9783935546875 2.075720548629761 C 43.50617980957031 1.030142664909363 40.87965774536133 0.4999982118606567 38.17175674438477 0.4999982118606567 C 35.46450424194336 0.4999982118606567 32.83849334716797 1.030142664909363 30.36668014526367 2.075709342956543 C 27.97887992858887 3.085742712020874 25.83431434631348 4.531798362731934 23.99255752563477 6.373720645904541 C 22.15077018737793 8.215686798095703 20.70480346679688 10.360520362854 19.6948356628418 12.74864292144775 C 18.6492919921875 15.22088718414307 18.1191577911377 17.84743118286133 18.1191577911377 20.5552978515625 L 18.1191577911377 23.49139785766602 C 18.1191577911377 28.70286560058594 20.1087589263916 33.64075469970703 23.7214469909668 37.39547729492188 L 24.24053573608398 37.93497467041016 L 23.54333686828613 38.2077751159668 C 20.20261383056641 39.51496505737305 17.07693672180176 41.31352996826172 14.25314712524414 43.55353164672852 C 11.45371437072754 45.77420806884766 9.001180648803711 48.38833236694336 6.963691711425781 51.32326507568359 C 2.735113859176636 57.41440963745117 0.5000028014183044 64.57037353515625 0.5000028014183044 72.01755523681641 C 0.5000028014183044 74.43383026123047 1.391202807426453 76.43578338623047 3.224536180496216 78.13778686523438 C 4.942458152770996 79.73265075683594 7.522347450256348 81.04827880859375 10.89254760742188 82.04808807373047 C 16.80482482910156 83.80204010009766 25.2481575012207 84.6546630859375 36.70503616333008 84.6546630859375 M 36.70503616333008 85.1546630859375 C 16.43256950378418 85.1546630859375 2.829996674336144e-06 82.52776336669922 2.829996674336144e-06 72.01755523681641 C 2.829996674336144e-06 56.42265319824219 9.687524795532227 43.09246444702148 23.36114692687988 37.74215316772461 C 19.80545806884766 34.04667663574219 17.6191577911377 29.02398681640625 17.6191577911377 23.49139785766602 L 17.6191577911377 20.5552978515625 C 17.6191577911377 9.202054023742676 26.82118034362793 -1.790364535736444e-06 38.17175674438477 -1.790364535736444e-06 C 49.52498245239258 -1.790364535736444e-06 58.72700119018555 9.202054023742676 58.72700119018555 20.5552978515625 L 58.72700119018555 23.49139785766602 C 58.72700119018555 29.47290992736816 56.17197036743164 34.8580207824707 52.09292602539062 38.61465454101562 C 64.67855072021484 44.44668579101562 73.41007232666016 57.21113204956055 73.41007232666016 72.01755523681641 C 73.41007232666016 82.52776336669922 56.97751235961914 85.1546630859375 36.70503616333008 85.1546630859375 Z" stroke="none" fill="rgba(255,255,255,0.3)"/>
      </g>
      <g id="Icon-2" data-name="Icon" transform="translate(-34.855 38.89)" fill="rgba(218,246,246,0.6)">
        <path d="M0,79.282a41.122,41.122,0,0,1,25.649-38.1,23.49,23.49,0,1,1,30.92,0,41.124,41.124,0,0,1,25.649,38.1c0,11.744-18.4,14.683-41.108,14.683S0,91.027,0,79.282Z" stroke="none"/>
        <path d="M 41.1104850769043 91.96559143066406 C 53.79985809326172 91.96559143066406 63.12229919433594 91.03166961669922 69.61049652099609 89.1104736328125 C 73.17082214355469 88.05622863769531 75.86855316162109 86.69486999511719 77.62875366210938 85.06419372558594 C 79.37128448486328 83.44989776611328 80.21833801269531 81.55867004394531 80.21833801269531 79.28245544433594 C 80.21833801269531 71.34672546386719 77.85556793212891 63.70697784423828 73.38544464111328 57.18915176391602 C 71.23027038574219 54.04671096801758 68.63319396972656 51.23811340332031 65.66635131835938 48.84136581420898 C 62.67657852172852 46.42611312866211 59.36276626586914 44.47124481201172 55.81696701049805 43.03107070922852 L 52.81043243408203 41.80994033813477 L 55.25252532958984 39.67297744750977 C 57.53836441040039 37.67273712158203 59.34269714355469 35.26721954345703 60.61539077758789 32.52323150634766 C 61.93173980712891 29.68513870239258 62.59917831420898 26.64639282226562 62.59917831420898 23.49139213562012 C 62.59917831420898 20.58928489685059 62.03132629394531 17.7750186920166 60.911376953125 15.1267786026001 C 59.82920455932617 12.5678186416626 58.2795524597168 10.26921844482422 56.30547332763672 8.294832229614258 C 54.33136367797852 6.320418357849121 52.03308486938477 4.770498752593994 49.47447204589844 3.688138484954834 C 46.82649993896484 2.567978620529175 44.01244354248047 2.00000524520874 41.1104850769043 2.00000524520874 C 38.20785903930664 2.00000524520874 35.39327239990234 2.567991971969604 32.7448844909668 3.688178539276123 C 30.18595123291016 4.770525455474854 27.88741874694824 6.32044506072998 25.91315269470215 8.294885635375977 C 23.93895149230957 10.26924514770508 22.38921928405762 12.56783199310303 21.30699157714844 15.12679195404053 C 20.18703269958496 17.77500534057617 19.61916542053223 20.58925819396973 19.61916542053223 23.49139213562012 C 19.61916542053223 26.64695167541504 20.28653907775879 29.68583106994629 21.60273933410645 32.52360534667969 C 22.87539100646973 35.26751327514648 24.6799259185791 37.67292404174805 26.96620559692383 39.67299270629883 L 29.40901947021484 41.81002044677734 L 26.40191268920898 43.03129959106445 C 22.85585784912109 44.47145843505859 19.5418586730957 46.42631149291992 16.55197906494141 48.8415641784668 C 13.58505821228027 51.23827362060547 10.98793888092041 54.04683303833008 8.832752227783203 57.18925857543945 C 4.362725257873535 63.7068977355957 2.00000524520874 71.34660339355469 2.00000524520874 79.28245544433594 C 2.00000524520874 81.55868530273438 2.847071886062622 83.44989776611328 4.589618682861328 85.06417846679688 C 6.34985876083374 86.69486999511719 9.047685623168945 88.05622863769531 12.60815143585205 89.1104736328125 C 19.09665870666504 91.03166961669922 28.41984558105469 91.96559143066406 41.1104850769043 91.96559143066406 M 41.1104850769043 93.96559143066406 C 18.4040584564209 93.96559143066406 5.191650416236371e-06 91.02684783935547 5.191650416236371e-06 79.28245544433594 C 5.191650416236371e-06 62.04671096801758 10.60591220855713 47.28788375854492 25.64935111999512 41.17828369140625 C 20.72703170776367 36.87215042114258 17.61916542053223 30.54496574401855 17.61916542053223 23.49139213562012 C 17.61916542053223 10.51813888549805 28.13461875915527 5.233968295215163e-06 41.1104850769043 5.233968295215163e-06 C 54.08371353149414 5.233968295215163e-06 64.59918212890625 10.51813888549805 64.59918212890625 23.49139213562012 C 64.59918212890625 30.5441780090332 61.49053955078125 36.87197875976562 56.569580078125 41.17808532714844 C 71.61186981201172 47.28767013549805 82.21833801269531 62.04671096801758 82.21833801269531 79.28245544433594 C 82.21833801269531 91.02684783935547 63.81428527832031 93.96559143066406 41.1104850769043 93.96559143066406 Z" stroke="none" fill="rgba(255,255,255,0.3)"/>
      </g>
    </g>
  </g>
</svg>
