<svg xmlns="http://www.w3.org/2000/svg" xmlns:xlink="http://www.w3.org/1999/xlink" width="132" height="132" viewBox="0 0 132 132">
  <defs>
    <linearGradient id="linear-gradient" x1="0.5" x2="0.5" y2="1" gradientUnits="objectBoundingBox">
      <stop offset="0" stop-color="#bed8fb"/>
      <stop offset="1" stop-color="#7eb0f2"/>
    </linearGradient>
    <clipPath id="clip-Wallet">
      <rect width="132" height="132"/>
    </clipPath>
  </defs>
  <g id="Wallet" clip-path="url(#clip-Wallet)">
    <rect width="132" height="132" fill="#fff"/>
    <g id="Wallet-2" data-name="Wallet" transform="translate(-223.829 -354.7)">
      <g id="Icon" transform="translate(233.43 399.547) rotate(-20)" fill="url(#linear-gradient)">
        <path d="M12.415,0H80.7A12.415,12.415,0,0,1,93.114,12.415V43.453A12.415,12.415,0,0,1,80.7,55.868H12.415A12.415,12.415,0,0,1,0,43.453V12.415A12.415,12.415,0,0,1,12.415,0Z" stroke="none"/>
        <path d="M 12.41513824462891 -7.62939453125e-06 L 12.41513824462891 0.4999923706054688 C 9.232490539550781 0.4999923706054688 6.240341186523438 1.7393798828125 3.989852905273438 3.989849090576172 C 1.739387512207031 6.240333557128906 0.5 9.232486724853516 0.5 12.41513442993164 L 0.5000076293945312 43.45298004150391 C 0.5000076293945312 46.63562774658203 1.739395141601562 49.62778091430664 3.989875793457031 51.87825012207031 C 6.240364074707031 54.12872314453125 9.232513427734375 55.36812210083008 12.41517639160156 55.36812210083008 L 80.69852447509766 55.36814498901367 C 83.88091278076172 55.36814498901367 86.87298583984375 54.12869644165039 89.12357330322266 51.87812042236328 C 91.37418365478516 49.62754440307617 92.61363983154297 46.63543701171875 92.61363983154297 43.4530143737793 L 92.61363220214844 12.41516876220703 C 92.61363220214844 9.232521057128906 91.37424468994141 6.240367889404297 89.12376403808594 3.989887237548828 C 86.87327575683594 1.739414215087891 83.88112640380859 0.5000267028808594 80.69847106933594 0.5000267028808594 L 12.41513824462891 0.4999923706054688 L 12.41513824462891 -7.62939453125e-06 M 12.41513824462891 -7.62939453125e-06 L 80.69847106933594 2.6702880859375e-05 C 87.55517578125 2.6702880859375e-05 93.11363220214844 5.558475494384766 93.11363220214844 12.41516876220703 L 93.11363983154297 43.4530143737793 C 93.11363983154297 50.30929183959961 87.55464172363281 55.86814498901367 80.69852447509766 55.86814498901367 C 80.69810485839844 55.86814498901367 80.69892120361328 55.86814498901367 80.69850158691406 55.86814498901367 L 12.41517639160156 55.86812210083008 C 5.558464050292969 55.86811065673828 7.62939453125e-06 50.30966186523438 7.62939453125e-06 43.45298004150391 L 0 12.41513442993164 C 0 5.558437347412109 5.558441162109375 -7.62939453125e-06 12.41513824462891 -7.62939453125e-06 Z" stroke="none" fill="rgba(255,255,255,0.3)"/>
      </g>
      <g id="Icon-2" data-name="Icon" transform="translate(234.492 395.634)" fill="rgba(218,246,246,0.6)">
        <path d="M12.415,0H99.321a12.415,12.415,0,0,1,12.415,12.415V62.076A12.415,12.415,0,0,1,99.321,74.491H12.415A12.415,12.415,0,0,1,0,62.076V12.415A12.415,12.415,0,0,1,12.415,0Z" stroke="none"/>
        <path d="M 12.41515350341797 1.999992370605469 C 6.672210693359375 1.999992370605469 2 6.672210693359375 2 12.41513061523438 L 2 62.07568359375 C 2 67.818603515625 6.672210693359375 72.49080657958984 12.41515350341797 72.49080657958984 L 99.32124328613281 72.49080657958984 C 105.0641860961914 72.49080657958984 109.7363967895508 67.818603515625 109.7363967895508 62.07568359375 L 109.7363967895508 12.41513061523438 C 109.7363967895508 6.672210693359375 105.0641860961914 1.999992370605469 99.32124328613281 1.999992370605469 L 12.41515350341797 1.999992370605469 M 12.41515350341797 -7.62939453125e-06 L 99.32124328613281 -7.62939453125e-06 C 106.1779556274414 -7.62939453125e-06 111.7363967895508 5.558456420898438 111.7363967895508 12.41513061523438 L 111.7363967895508 62.07568359375 C 111.7363967895508 68.93235778808594 106.1779556274414 74.49080657958984 99.32124328613281 74.49080657958984 L 12.41515350341797 74.49080657958984 C 5.558456420898438 74.49080657958984 0 68.93235778808594 0 62.07568359375 L 0 12.41513061523438 C 0 5.558456420898438 5.558456420898438 -7.62939453125e-06 12.41515350341797 -7.62939453125e-06 Z" stroke="none" fill="rgba(255,255,255,0.3)"/>
      </g>
      <path id="Icon-3" data-name="Icon" d="M4.656,0H32.59a4.656,4.656,0,1,1,0,9.311H4.656A4.656,4.656,0,1,1,4.656,0Z" transform="translate(253.114 442.191)" fill="#fff"/>
    </g>
  </g>
</svg>
